<?xml version="1.0" standalone="no"?>
<!DOCTYPE svg PUBLIC "-//W3C//DTD SVG 20010904//EN"
 "http://www.w3.org/TR/2001/REC-SVG-20010904/DTD/svg10.dtd">
<svg version="1.0" xmlns="http://www.w3.org/2000/svg"
 width="700.000000pt" height="700.000000pt" viewBox="0 0 700.000000 700.000000"
 preserveAspectRatio="xMidYMid meet">
<metadata>
Created by potrace 1.14, written by Peter Selinger 2001-2017
</metadata>
<g transform="translate(0.000000,700.000000) scale(0.100000,-0.100000)"
fill="#000000" stroke="none">
<path d="M3428 5399 c-210 -16 -425 -74 -590 -158 -373 -189 -569 -521 -544
-921 23 -377 210 -635 591 -814 102 -48 338 -122 610 -191 272 -69 493 -139
575 -180 64 -32 166 -115 200 -162 80 -112 89 -281 24 -420 -52 -109 -197
-208 -370 -253 -162 -42 -438 -42 -597 -1 -265 69 -443 250 -510 519 -12 48
-22 88 -23 89 0 2 -503 -138 -586 -163 -25 -7 -23 -51 6 -166 31 -123 73 -221
140 -322 211 -325 570 -508 1066 -547 280 -21 596 15 819 93 482 169 741 510
741 978 0 253 -81 485 -222 636 -189 202 -415 309 -933 445 -469 123 -583 161
-702 235 -81 50 -121 92 -161 167 -24 47 -27 62 -27 157 0 94 3 111 28 161 53
109 171 194 334 241 69 20 100 23 268 23 179 -1 194 -2 270 -28 111 -37 197
-90 280 -172 80 -79 123 -147 156 -250 12 -38 24 -72 25 -74 3 -4 585 159 594
166 10 9 -41 178 -78 257 -103 219 -267 385 -498 503 -175 89 -335 133 -559
152 -133 12 -172 12 -327 0z"/>
</g>
</svg>
